# xmcd
#
# Track frame offsets: 
#        150
#        11925
#        25805
#        40092
#        52070
#        64095
#        76805
#        88422
#        100487
#        113987
#        127547
#        141472
#        156105
#        169162
#        180817
#        194512
#        207112
#        219862
#        232005
#        245790
#        257942
#        272282
#        285427
#
# Disc length: 3966 seconds
#
# Revision: 0
# Processed by: cddbd v1.5.2PL0 Copyright (c) Steve Scherf et al.
# Submitted via: ExactAudioCopy v1.0b1
#
DISCID=470f7c17
DTITLE=Bill Gaither - Volume 1
DYEAR=1935
DGENRE=Blues
TTITLE0=Naptown Stomp
TTITLE1=Tired Of That Same Stuff All The Time
TTITLE2=Georgia Woman Stomp (Carrying On Blues)
TTITLE3=Pains In My Heart
TTITLE4=Strange Woman
TTITLE5=Which One I Love The Best
TTITLE6=Pins And Needles
TTITLE7=Bad Luck Child
TTITLE8=You Done Lost Your Swing
TTITLE9=After The Sun's Gone Down
TTITLE10=Stoney Lonesome
TTITLE11=You Done Showed Your D.B.A.
TTITLE12=Tired Of That Same Stuff All The Time
TTITLE13=Curbstone Blues
TTITLE14=Morning Dream
TTITLE15=Tired Of Your Line Of Jive
TTITLE16=Too Many Women
TTITLE17=Evil Hearted Me
TTITLE18=Gravel In My Bread
TTITLE19=How Long Baby How Long
TTITLE20=L and N Blues
TTITLE21='Bout The Break Of Day
TTITLE22=Who's Been Here Since I Been Gone
EXTD=
EXTT0=
EXTT1=
EXTT2=
EXTT3=
EXTT4=
EXTT5=
EXTT6=
EXTT7=
EXTT8=
EXTT9=
EXTT10=
EXTT11=
EXTT12=
EXTT13=
EXTT14=
EXTT15=
EXTT16=
EXTT17=
EXTT18=
EXTT19=
EXTT20=
EXTT21=
EXTT22=
PLAYORDER=
